<?xml version="1.0" standalone="no"?><!DOCTYPE svg PUBLIC "-//W3C//DTD SVG 1.1//EN" "http://www.w3.org/Graphics/SVG/1.1/DTD/svg11.dtd"><svg t="1617000635324" class="icon" viewBox="0 0 1024 1024" version="1.1" xmlns="http://www.w3.org/2000/svg" p-id="16530" xmlns:xlink="http://www.w3.org/1999/xlink" width="64" height="64"><defs><style type="text/css"></style></defs><path d="M700.7 800.7c-56.9 40.5-123.6 60.5-191.8 60-8.7 0-17.9-0.5-26.7-1.5l-10.8-1.5c-7.2-1-13.8-2-20.5-3.1l-12.3-3.1c-6.7-1.5-13.3-3.1-20-5.1l-9.2-3.1c-7.7-2.6-14.9-5.1-22-8.2-1.5-0.5-3.1-1.5-4.6-2.1-8.7-3.6-16.9-7.7-25.1-12.3-0.5 0-0.5-0.5-1-0.5-27.2-15.4-52.3-34.4-74.4-56.4l-1-1c-6.7-7.2-13.3-14.4-19.5-22-1.5-1.5-2.6-3.6-4.1-5.1-44.6-56.9-71.8-128.7-71.8-206.6h75.9c2 0 4.1-1 4.6-3.1 1-1.5 1-4.1 0-5.6l-128.7-194c-1-1.5-2.6-2.6-4.6-2.6-2.1 0-3.6 1-4.6 2.6L0.8 520.2c-1 1.5-1 4.1 0 5.6s3.1 3.1 4.6 3.1h75.9c0 91.8 28.2 176.9 76.4 247.7l1.5 3.1c5.1 7.2 10.3 13.8 15.9 20.5l6.2 7.7c7.7 9.7 16.4 19 24.6 27.7l2.6 2.6c28.7 29.2 61.5 53.8 96.9 73.3l3.1 1.5c10.3 5.6 20.5 10.8 31.3 15.4 2.6 1 5.1 2.6 7.7 3.6 9.2 3.6 18.5 7.2 27.7 10.3 4.6 1.5 8.7 3.1 13.3 4.6 8.2 2.6 16.4 4.6 25.1 6.7 5.6 1.5 11.3 2.6 16.9 4.1 2.6 0.5 4.6 1 7.2 1.5 8.2 1.5 15.9 2.1 24.1 3.1 3.1 0.5 5.6 1 8.7 1 14.4 1.5 28.7 2.6 43.1 2.6 87.7 0 173.3-27.2 246.6-79 23.6-16.4 29.2-49.2 12.8-72.8-16.9-24.2-49.2-30.3-72.3-13.4M943.7 528.9c0-91.8-28.2-176.4-75.9-246.6-0.5-1-1-2.6-2-3.6-6.2-8.7-12.3-16.4-19-24.6-0.5-1-1.5-2-2-3.1-43.6-53.8-98.5-95.4-161-122.6-1.5-0.5-3.6-1.5-5.1-2.6-9.7-4.1-20-7.7-30.3-11.3-3.6-1-7.2-2.6-11.3-3.6-8.7-2.6-17.9-5.1-27.2-7.2-5.1-1-10.3-2.6-15.4-3.6-2.6-0.5-5.1-1-7.2-1.5-6.7-1-13.8-1.5-20.5-2.6-4.6-0.5-9.2-1.5-14.4-2.1-11.3-1-23.1-1.5-34.4-1.5-2.1 0-4.1-0.5-6.2-0.5h-1c-87.7 0-172.8 26.7-246.1 79-23.6 16.4-29.2 49.2-12.8 72.8 16.4 23.6 48.7 29.2 72.3 12.8 56.4-40 122.6-60.5 190.2-60 9.7 0 19.5 0.5 28.7 1.5 3.1 0.5 5.6 1 8.7 1 7.7 1 15.4 2.1 23.1 3.6 3.6 0.5 6.7 1.5 9.7 2.1 7.7 1.5 14.9 3.6 22.1 5.6 2 0.5 4.6 1.5 6.7 2.6 8.2 2.6 16.4 5.6 24.6 9.2 1 0.5 1.5 1 2.6 1 48.2 21 90.8 53.3 123.6 93.8 0 0 0.5 0.5 0.5 1 46.7 57.4 74.4 130.2 74.4 210.2h-75.9c-2.1 0-4.1 1-4.6 3.1-0.5 2-1 4.1 0 5.6L886.3 731c1 1.5 2.6 2.6 4.6 2.6 2.1 0 3.6-1 4.6-2.6l127.7-193.8c1-1.5 1-4.1 0-5.6s-3.1-3.1-4.6-3.1l-74.9 0.4z" fill="#1296DB" p-id="16531"></path></svg>