<?xml version="1.0" standalone="no"?><!DOCTYPE svg PUBLIC "-//W3C//DTD SVG 1.1//EN" "http://www.w3.org/Graphics/SVG/1.1/DTD/svg11.dtd"><svg t="1617008851794" class="icon" viewBox="0 0 1024 1024" version="1.1" xmlns="http://www.w3.org/2000/svg" p-id="19830" xmlns:xlink="http://www.w3.org/1999/xlink" width="64" height="64"><defs><style type="text/css"></style></defs><path d="M150.665731 173.241637l86.479096 88.604944h549.646471l86.540975-88.60694c11.086347-11.361809 28.296733-12.623345 40.744421-3.786604l4.423361 3.786604c11.086347 11.361809 12.317942 28.999361 3.694783 41.756445l-3.694783 4.53115L831.376218 308.717037v248.36092l159.688109 0.025949c17.639548 0 31.937622 14.65338 31.937622 32.730075 0 18.076694-14.298074 32.73207-31.937622 32.73207l-159.688109-0.027946v32.077349c0 61.923057-16.779228 119.831953-45.934284 169.209513l133.058121 136.315758c12.471641 12.783033 12.471641 33.506558 0 46.289591a31.392686 31.392686 0 0 1-45.167782 0l-126.678581-129.778527c-54.703158 60.68747-131.539088 100.108476-217.371446 104.799314l-17.282246 0.47108c-92.770807 0-176.303657-40.536827-234.653692-105.270394l-126.678581 129.776531c-11.086347 11.361809-28.296733 12.625341-40.744421 3.7886l-4.423361-3.7886c-11.086347-11.361809-12.317942-28.997365-3.694783-41.754449l3.694783-4.533146 133.058121-136.317754C209.40301 774.447407 192.623782 716.540507 192.623782 654.613458v-32.075353l-159.688109 0.027946c-17.639548 0-31.937622-14.655376-31.937622-32.73207 0-18.076694 14.298074-32.730074 31.937622-32.730075l159.688109-0.025949v-248.295049l-87.123837-89.253676c-12.471641-12.783033-12.471641-33.506558 0-46.289591a31.392686 31.392686 0 0 1 45.167782 0zM512 444.817216c-17.639548 0-31.937622 14.30007-31.937622 31.937622v317.080702c0 17.639548 14.298074 31.937622 31.937622 31.937622s31.937622-14.298074 31.937622-31.937622v-317.080702c0-17.637552-14.298074-31.937622-31.937622-31.937622zM512 0c88.910347 0 168.500897 66.112873 189.428023 164.372959 1.465138 6.655002 2.197708 11.870815 2.197708 15.645443 0 19.641637-15.264187 35.610448-32.915712 35.997692l-316.761325 0.005988c-17.930979 0-33.574425-16.118519-33.574425-36.00368l0.093817-3.30754c15.968811-96.507509 89.808593-170.576842 180.156132-176.347572L512 0z" p-id="19831" fill="#d81e06"></path></svg>