<?xml version="1.0" standalone="no"?><!DOCTYPE svg PUBLIC "-//W3C//DTD SVG 1.1//EN" "http://www.w3.org/Graphics/SVG/1.1/DTD/svg11.dtd"><svg t="1617008834645" class="icon" viewBox="0 0 1024 1024" version="1.1" xmlns="http://www.w3.org/2000/svg" p-id="18393" xmlns:xlink="http://www.w3.org/1999/xlink" width="64" height="64"><defs><style type="text/css"></style></defs><path d="M362.268444 358.513778C311.296 409.372444 283.306667 477.070222 283.306667 548.977778v198.656c0 18.887111 15.246222 34.133333 34.133333 34.133333h470.584889c18.887111 0 34.133333-15.246222 34.133333-34.133333V566.613333c0-1.592889-0.113778-3.072-0.341333-4.664889 0.227556-4.323556 0.341333-8.647111 0.341333-12.970666 0-72.021333-27.989333-139.605333-78.961778-190.464-50.858667-50.858667-118.556444-78.961778-190.464-78.961778s-139.605333 28.103111-190.464 78.961778z m391.623112 190.464c0 4.892444-0.227556 10.012444-0.568889 15.018666-0.227556 3.072 0 6.144 0.568889 9.102223v140.401777H351.573333V548.977778c0-110.933333 90.225778-201.159111 201.159111-201.159111S753.891556 438.044444 753.891556 548.977778z" fill="#592B0C" p-id="18394"></path><path d="M450.104889 429.397333C367.274667 498.346667 389.12 617.358222 390.030222 622.478222c3.185778 16.384 17.408 27.648 33.450667 27.648 2.161778 0 4.323556-0.227556 6.485333-0.568889 18.545778-3.527111 30.606222-21.504 27.079111-39.936-0.113778-0.796444-14.677333-84.878222 36.636445-127.658666 14.449778-12.060444 16.384-33.564444 4.323555-48.128-11.946667-14.563556-33.450667-16.497778-47.900444-4.437334zM267.264 397.880889c11.377778 0 22.414222-5.688889 28.899556-16.042667 10.012444-15.928889 5.233778-37.091556-10.808889-47.104l-53.475556-33.564444c-15.928889-10.012444-37.091556-5.233778-47.104 10.808889-10.012444 15.928889-5.233778 37.091556 10.808889 47.104l53.475556 33.564444c5.688889 3.527111 11.946667 5.233778 18.204444 5.233778zM337.692444 248.945778c5.575111 12.970667 18.204444 20.707556 31.402667 20.707555 4.437333 0 8.988444-0.910222 13.425778-2.730666 17.294222-7.395556 25.372444-27.420444 17.976889-44.828445l-24.803556-58.026666c-7.395556-17.294222-27.420444-25.372444-44.828444-17.976889-17.294222 7.395556-25.372444 27.420444-17.976889 44.828444l24.803555 58.026667zM534.983111 243.484444h1.820445c18.090667 0 33.109333-14.108444 34.019555-32.312888l3.299556-63.032889c1.024-18.773333-13.539556-34.929778-32.312889-35.84-18.773333-1.024-34.929778 13.539556-35.84 32.312889l-3.299556 63.032888c-0.910222 18.773333 13.539556 34.816 32.312889 35.84zM854.471111 815.900444H269.653333c-18.887111 0-34.133333 15.246222-34.133333 34.133334s15.246222 34.133333 34.133333 34.133333h584.817778c18.887111 0 34.133333-15.246222 34.133333-34.133333s-15.246222-34.133333-34.133333-34.133334z" fill="#592B0C" p-id="18395"></path></svg>